<svg xmlns="http://www.w3.org/2000/svg" viewBox="0 0 111.09 137.45"><defs><style>.cls-1{fill:#111111;}</style></defs><title>moon_and_sun_icon</title><g id="Layer_2" data-name="Layer 2"><g id="Layer_1-2" data-name="Layer 1"><path class="cls-1" d="M68.71,26.36a42.37,42.37,0,1,0,42.38,42.35A42.4,42.4,0,0,0,68.71,26.36Zm-.71,79a36.68,36.68,0,0,1,0-73.35Zm.71-85a2.84,2.84,0,0,0,2.84-2.84V2.83a2.84,2.84,0,0,0-5.67,0V17.57A2.84,2.84,0,0,0,68.71,20.41Zm0,96.6a2.84,2.84,0,0,0-2.83,2.84v14.77a2.84,2.84,0,0,0,5.67,0V119.85A2.84,2.84,0,0,0,68.71,117ZM30.57,34.57a2.82,2.82,0,0,0,4,0,2.82,2.82,0,0,0,0-4L24.14,20.13a2.84,2.84,0,1,0-4,4Zm0,68.31L20.13,113.31a2.84,2.84,0,0,0,4,4l10.43-10.43a2.83,2.83,0,1,0-4-4ZM20.41,68.71a2.84,2.84,0,0,0-2.84-2.83H2.83a2.84,2.84,0,0,0,0,5.67H17.57A2.84,2.84,0,0,0,20.41,68.71Z"/></g></g></svg>